<svg version="1.1" id="Layer_1" xmlns="http://www.w3.org/2000/svg" xmlns:xlink="http://www.w3.org/1999/xlink" x="0px" y="0px"
	 width="100%" viewBox="0 0 677 369" enable-background="new 0 0 677 369" xml:space="preserve">
<path fill="#000000" opacity="1.000000" stroke="none" 
	d="
M462.000000,370.000000 
	C308.036652,370.000000 154.573318,370.000000 1.054992,370.000000 
	C1.054992,247.066055 1.054992,124.132088 1.054992,1.099057 
	C226.546692,1.099057 452.093445,1.099057 677.820068,1.099057 
	C677.820068,123.999786 677.820068,246.999878 677.820068,370.000000 
	C606.132019,370.000000 534.316040,370.000000 462.000000,370.000000 
M123.245583,127.795326 
	C116.438408,130.533905 109.716499,133.519348 102.789810,135.911911 
	C99.058418,137.200760 97.715721,138.980255 97.882545,143.008194 
	C98.438980,156.442474 98.902588,169.897034 98.778297,183.338043 
	C98.672493,194.780304 102.731766,204.918396 107.439606,214.870636 
	C109.003922,218.177567 110.923668,222.271957 115.968727,221.127945 
	C115.968727,223.318008 115.260170,226.201477 116.095474,226.754959 
	C119.165344,228.789062 120.625664,232.082489 122.972618,234.390625 
	C132.259155,243.523743 143.532181,249.975204 155.153229,255.841751 
	C160.162262,258.370422 164.521027,257.538177 168.997025,255.058136 
	C174.316177,252.110931 179.991837,249.633621 184.831467,246.035919 
	C191.759033,240.886063 197.875427,234.656723 204.695969,229.347992 
	C211.829849,223.795364 213.192245,214.879974 217.867004,207.872604 
	C224.403870,198.073990 224.298828,185.948685 224.847290,174.509888 
	C225.427109,162.416916 224.977386,150.274582 224.977386,138.242737 
	C215.286545,134.287277 206.406204,130.651230 197.516815,127.037430 
	C187.977432,123.159393 178.513153,119.071945 168.840088,115.560745 
	C165.448441,114.329620 162.242828,112.258759 157.746841,114.237061 
	C146.680725,119.106300 135.197006,123.026474 123.245583,127.795326 
M254.872696,190.627029 
	C255.510223,197.182068 257.735779,203.131378 262.049377,208.133179 
	C270.266113,217.660873 280.793304,219.515930 292.642792,217.312073 
	C306.692902,214.698944 316.979675,195.461197 311.367981,182.249023 
	C302.873230,182.249023 294.447357,182.249023 285.955566,182.249023 
	C285.955566,185.461639 285.955566,188.412262 285.955566,191.785141 
	C290.752075,191.785141 295.346344,191.785141 300.016937,191.785141 
	C299.874542,198.715317 297.262726,203.673065 291.029785,206.141525 
	C284.864471,208.583206 276.763000,206.530914 272.487366,201.762909 
	C266.336304,194.903503 266.481537,186.432816 267.413086,178.285187 
	C268.241669,171.037766 272.685089,163.761581 281.367493,162.004745 
	C288.004059,160.661896 293.939697,163.612320 298.741211,170.972336 
	C299.311096,171.845871 300.316742,172.960846 301.185577,173.020889 
	C304.610382,173.257629 308.061218,173.117950 312.022125,173.117950 
	C310.469727,166.310501 308.165283,160.965790 303.185486,156.788742 
	C295.326263,150.196411 286.230591,149.937698 276.966858,151.537796 
	C269.726868,152.788361 264.220917,157.043793 260.083405,163.310471 
	C254.682281,171.490921 254.128799,180.436066 254.872696,190.627029 
M376.434235,216.314636 
	C376.276093,220.599823 373.645599,223.206726 369.874756,223.922928 
	C363.198303,225.191040 356.885712,224.580124 354.263153,217.869843 
	C350.302795,218.699966 347.033813,219.385162 342.868500,220.258240 
	C344.724823,223.175446 345.881927,225.556152 347.546417,227.503067 
	C352.348236,233.119629 358.795715,234.048996 365.840454,234.176788 
	C380.347748,234.439941 389.610016,226.323517 389.032745,210.860977 
	C388.591827,199.049438 388.940979,187.208420 388.938843,175.380508 
	C388.938385,172.967529 388.938782,170.554565 388.938782,168.452576 
	C384.289948,168.452576 380.359528,168.452576 376.428406,168.456955 
	C375.906372,169.714783 375.384308,170.972610 374.818542,172.335754 
	C366.960724,165.731827 356.766174,166.207779 349.632538,173.041962 
	C342.649750,179.731598 342.078461,187.805267 342.791168,196.948181 
	C343.951141,211.828552 361.155975,220.346527 375.026947,210.571075 
	C375.561859,212.421844 376.001770,213.943924 376.434235,216.314636 
M426.885651,162.288422 
	C428.990753,164.372162 431.080383,166.471893 433.209198,168.531097 
	C433.972351,169.269318 434.794312,170.443481 435.650909,170.500885 
	C439.056091,170.729080 442.485565,170.594818 447.478699,170.594818 
	C444.994934,165.601608 443.370819,161.587952 441.119598,157.963837 
	C436.161804,149.982651 418.553314,149.390244 410.322968,152.770508 
	C402.235352,156.092163 397.780182,162.397369 398.103668,170.096451 
	C398.462494,178.636703 402.763550,184.354477 411.301056,187.036148 
	C416.886475,188.790573 422.716156,189.800766 428.236877,191.718613 
	C434.211365,193.794128 435.887390,199.564667 432.014160,203.859375 
	C427.195007,209.202957 413.026001,209.268051 410.241028,201.671341 
	C408.471313,196.843964 405.629486,196.605713 401.696045,196.967453 
	C400.221619,197.103058 398.724304,196.989426 397.157501,196.989426 
	C395.331635,204.135254 398.953491,209.319733 403.780914,212.806839 
	C413.415222,219.766251 424.559631,220.224472 435.241669,215.833832 
	C449.341766,210.038284 450.188751,192.288513 440.763855,185.169907 
	C436.869385,182.228439 431.638062,180.984146 426.916962,179.231430 
	C422.649994,177.647293 418.085999,176.787262 413.954895,174.934723 
	C409.920563,173.125595 409.450958,167.450302 412.968414,164.682144 
	C416.813873,161.655807 421.098938,159.604065 426.885651,162.288422 
M464.328278,217.323288 
	C471.838196,219.670868 478.151886,217.400085 483.807312,211.929779 
	C483.974609,213.873383 484.111237,215.460617 484.243134,216.993011 
	C488.373505,216.993011 492.302704,216.993011 496.464569,216.993011 
	C496.464569,206.209839 496.887482,195.718231 496.251221,185.291260 
	C496.005188,181.259537 494.320404,176.473297 491.622986,173.592880 
	C483.821472,165.262070 465.638245,165.225159 457.702148,174.930466 
	C456.283356,176.665543 455.992859,179.323273 455.181427,181.555008 
	C457.766052,182.322891 460.316101,183.437943 462.951080,183.700684 
	C464.129333,183.818192 465.454926,182.185715 466.754395,181.416260 
	C469.391388,179.854843 471.892181,177.705078 474.750916,176.967087 
	C478.329651,176.043228 483.142883,179.836731 483.045715,182.917770 
	C482.881866,188.112488 478.806671,186.783859 475.677612,187.186996 
	C472.300140,187.622131 468.930511,188.234467 465.615601,189.016037 
	C456.829071,191.087662 453.204620,195.602386 452.628387,204.913620 
	C452.351562,209.386993 456.989746,214.666092 464.328278,217.323288 
M551.797607,206.005203 
	C549.801270,203.047699 546.735657,200.442612 548.404846,195.848083 
	C559.320190,195.848083 570.070374,195.848083 581.837219,195.848083 
	C580.925415,191.062332 580.358093,186.760193 579.259888,182.598129 
	C577.016846,174.097397 571.372314,168.964767 562.652344,167.942291 
	C552.901978,166.799026 544.318054,168.901962 539.039795,178.336639 
	C533.086548,188.977890 533.479797,199.559113 540.182678,209.478104 
	C545.163879,216.849274 553.157349,218.546280 561.597839,218.140762 
	C571.384644,217.670547 580.466003,210.153366 579.637512,202.319595 
	C577.024475,202.199692 574.110413,202.753387 571.799561,201.817596 
	C566.914612,199.839325 568.480530,205.442749 566.047363,206.151093 
	C564.964355,206.466354 563.943542,207.462357 562.919373,207.427048 
	C559.405151,207.305939 555.902039,206.865234 551.797607,206.005203 
M521.604431,163.338364 
	C523.328308,158.156052 528.092407,160.762253 531.236572,159.688507 
	C531.859741,157.478531 532.671448,155.476456 532.903442,153.409286 
	C533.020569,152.366104 532.381226,150.563034 531.583496,150.198380 
	C524.925781,147.155045 515.215820,149.830536 511.559540,156.274185 
	C509.550354,159.815063 509.019165,164.194565 507.709045,168.571854 
	C506.145386,168.692780 504.061096,168.853973 502.089050,169.006500 
	C502.089050,172.186447 502.089050,175.078873 502.089050,178.097610 
	C504.400024,178.361328 506.329559,178.581528 508.808411,178.864410 
	C508.808411,191.697479 508.808411,204.387421 508.808411,217.111420 
	C513.160828,217.111420 516.934631,217.111420 521.118286,217.111420 
	C521.118286,204.205551 521.118286,191.466507 521.118286,178.327393 
	C524.811523,178.327393 528.091553,178.327393 531.599426,178.327393 
	C531.599426,174.689789 531.599426,171.463226 531.599426,168.440948 
	C528.047363,168.440948 524.800354,168.440948 521.229309,168.440948 
	C521.229309,166.967163 521.229309,165.523651 521.604431,163.338364 
M331.476074,217.270905 
	C332.379181,216.491776 334.062286,215.720428 334.070129,214.932388 
	C334.224884,199.377457 334.185394,183.820572 334.185394,168.219788 
	C329.894012,168.437546 326.044403,168.632889 322.226929,168.826599 
	C322.226929,184.740326 322.226929,200.919952 322.226929,217.254730 
	C325.192230,217.254730 327.836823,217.254730 331.476074,217.270905 
M324.738831,149.126114 
	C321.736420,151.957001 319.353363,155.072662 321.820465,159.342651 
	C323.544067,162.325821 329.029236,164.129669 331.331909,162.284668 
	C333.837402,160.277176 336.181702,157.760284 334.806946,153.901306 
	C333.460236,150.121017 329.869476,148.225479 324.738831,149.126114 
z"/>
<path fill="#F3F4F4" opacity="1.000000" stroke="none" 
	d="
M123.563400,127.561813 
	C135.197006,123.026474 146.680725,119.106300 157.746841,114.237061 
	C162.242828,112.258759 165.448441,114.329620 168.840088,115.560745 
	C178.513153,119.071945 187.977432,123.159393 197.516815,127.037430 
	C206.406204,130.651230 215.286545,134.287277 224.977386,138.242737 
	C224.977386,150.274582 225.427109,162.416916 224.847290,174.509888 
	C224.298828,185.948685 224.403870,198.073990 217.867004,207.872604 
	C213.192245,214.879974 211.829849,223.795364 204.695969,229.347992 
	C197.875427,234.656723 191.759033,240.886063 184.831467,246.035919 
	C179.991837,249.633621 174.316177,252.110931 168.997025,255.058136 
	C164.521027,257.538177 160.162262,258.370422 155.153229,255.841751 
	C143.532181,249.975204 132.259155,243.523743 122.972618,234.390625 
	C120.625664,232.082489 119.165344,228.789062 116.095474,226.754959 
	C115.260170,226.201477 115.968727,223.318008 115.968727,221.127945 
	C110.923668,222.271957 109.003922,218.177567 107.439606,214.870636 
	C102.731766,204.918396 98.672493,194.780304 98.778297,183.338043 
	C98.902588,169.897034 98.438980,156.442474 97.882545,143.008194 
	C97.715721,138.980255 99.058418,137.200760 102.789810,135.911911 
	C109.716499,133.519348 116.438408,130.533905 123.563400,127.561813 
M154.827820,209.789734 
	C155.619781,206.840347 156.746399,203.930618 157.101944,200.929535 
	C157.407806,198.347809 158.590454,194.848312 155.116394,194.376907 
	C153.589508,197.068573 152.253281,199.424149 150.825043,201.941925 
	C151.542831,203.649231 152.475204,205.866974 152.548660,208.228043 
	C150.699265,207.676483 148.849869,207.124924 146.762924,206.502518 
	C145.572815,207.560089 143.907593,209.039886 141.908264,210.816574 
	C146.377899,210.441620 150.221481,210.119202 154.827820,209.789734 
M175.167679,188.294449 
	C177.988220,187.340073 180.808762,186.385712 184.514267,185.131912 
	C178.530365,183.089905 173.533325,181.384644 168.179993,179.557816 
	C168.411469,185.092712 171.599365,187.136200 174.615311,189.547089 
	C172.773529,194.248001 170.931732,198.948914 169.035828,203.787933 
	C173.008850,203.289948 180.206482,195.919205 180.815384,191.656998 
	C178.887253,191.974915 177.087112,192.271713 175.975693,192.454971 
	C175.569534,191.105026 175.260971,190.079468 175.167679,188.294449 
M189.993103,180.204788 
	C192.358536,179.839188 194.723969,179.473602 197.471970,179.048874 
	C197.471970,183.326721 197.471970,187.031876 197.471970,190.760086 
	C191.693863,190.094070 191.276260,190.555130 192.890091,196.173981 
	C202.208115,192.704590 207.062973,200.050873 213.263855,204.831024 
	C213.246414,203.406799 213.107254,201.462433 212.456772,201.272903 
	C208.545303,200.133163 209.525864,196.756577 210.044708,194.765823 
	C213.574524,181.222809 212.255951,167.451126 212.480057,153.757217 
	C212.609161,145.869370 212.358597,145.904510 205.155609,143.130798 
	C192.509354,138.261002 179.881363,133.328476 167.394226,128.069580 
	C163.269974,126.332664 159.597031,125.803001 155.681503,128.084106 
	C154.546082,128.745590 153.402008,129.430786 152.184296,129.906494 
	C138.214340,135.363937 124.229385,140.783035 109.128860,146.647125 
	C110.419922,162.892181 111.374466,179.044189 113.165207,195.102951 
	C113.761086,200.446579 116.801361,205.474075 118.165901,210.789413 
	C119.242554,214.983337 119.420998,219.404327 120.168373,223.694870 
	C120.214012,223.956909 121.755615,223.958359 122.951668,224.131927 
	C121.924866,219.633636 119.489380,215.234161 120.442963,211.766708 
	C122.147804,205.567520 124.695030,199.016464 132.213882,196.791122 
	C133.328598,196.461212 134.031128,194.738617 134.924362,193.660339 
	C133.714737,193.035629 132.563004,192.215866 131.280899,191.835388 
	C129.660645,191.354553 127.934181,191.231598 126.092453,190.927704 
	C126.612198,188.742249 127.068916,186.821777 127.560493,184.754745 
	C125.398674,184.754745 123.338577,185.060425 121.428673,184.656311 
	C119.948280,184.343079 118.655594,183.142654 117.279465,182.336609 
	C118.726135,181.286453 120.045006,179.698120 121.650513,179.316849 
	C123.858871,178.792419 126.310120,178.968353 128.607849,179.248993 
	C130.317978,179.457886 133.211411,180.082901 133.361450,180.919876 
	C133.705490,182.839233 132.694260,185.001526 132.193237,187.244415 
	C134.825516,187.244415 138.266022,187.244415 141.680618,187.244415 
	C140.568344,179.823608 139.128204,178.962097 131.040131,177.204681 
	C128.056946,176.556458 125.162292,173.863815 123.128799,171.368835 
	C122.415901,170.494156 124.252884,167.347931 125.188004,165.362610 
	C127.293633,160.892197 129.926270,156.637756 131.682327,152.042404 
	C134.412247,144.898590 134.544510,145.323471 141.625778,148.602707 
	C142.515686,149.014801 143.302185,149.653839 144.197540,150.049957 
	C150.217026,152.713196 156.252991,155.339188 163.461716,158.492599 
	C161.862778,154.267868 159.535614,151.197205 160.286270,149.445557 
	C161.737167,146.059967 164.375107,142.223740 167.531326,140.774200 
	C171.369049,139.011703 175.962387,140.302002 178.879318,144.366638 
	C179.498703,145.229721 180.378036,146.524902 181.164215,146.544327 
	C184.899857,146.636612 184.431870,149.007477 184.229767,151.046158 
	C182.585526,151.943069 180.532104,152.364563 179.831009,153.571548 
	C177.344666,157.851959 174.018555,160.449249 169.308838,160.242554 
	C170.452591,167.004044 175.035507,170.008728 180.817551,171.752441 
	C182.075211,172.131714 183.279602,172.704544 184.550201,173.020782 
	C188.058548,173.893951 189.588425,175.892792 188.260849,179.911606 
	C188.569107,180.004684 188.877365,180.097763 189.993103,180.204788 
M188.052689,198.054840 
	C186.887161,193.621826 185.129974,196.726135 183.983154,197.901642 
	C179.244202,202.759216 174.739227,207.847198 169.938812,212.640732 
	C169.029404,213.548843 167.167374,213.502991 165.150040,214.062210 
	C164.853302,215.060471 164.260681,217.054123 163.934296,218.152130 
	C158.777878,216.956345 154.070297,215.595078 149.267151,214.849289 
	C146.260956,214.382507 143.093536,215.051987 140.032578,214.799057 
	C138.470230,214.669968 136.983017,213.631866 135.461838,213.004623 
	C136.276810,211.510239 136.970123,209.931381 137.935226,208.541229 
	C139.387497,206.449326 141.029938,204.489456 143.406952,201.420746 
	C140.125443,201.420746 138.644852,201.393219 137.165558,201.425583 
	C131.309875,201.553680 127.516563,204.599380 126.291740,210.131058 
	C125.222786,214.958847 128.076477,220.778229 132.574387,222.943024 
	C137.340134,225.236679 143.850479,224.352402 146.390869,220.095688 
	C148.407562,216.716492 150.611359,216.872910 153.823074,217.534485 
	C150.715195,224.798889 144.572205,228.056168 136.573334,231.444061 
	C145.058701,236.098328 152.699570,240.321381 160.392197,244.447922 
	C161.005524,244.776917 162.096451,244.690659 162.763382,244.373077 
	C172.202927,239.877960 181.470840,235.103546 188.171188,228.213684 
	C185.516907,223.944626 182.375427,220.440170 181.002625,216.343109 
	C178.576065,209.101089 181.956589,203.290970 188.052689,198.054840 
M207.952698,209.174805 
	C206.187576,202.793427 201.099121,201.579529 195.068970,201.133514 
	C196.260483,204.605026 197.517212,207.898758 198.469757,211.278244 
	C198.736420,212.224350 198.106827,213.423080 197.888382,214.505920 
	C196.822662,214.078873 195.243286,213.954086 194.782516,213.171066 
	C193.037613,210.205780 191.655273,207.027115 190.135117,203.923782 
	C185.653275,206.229034 183.865280,212.090759 186.205353,217.270111 
	C188.707993,222.809250 195.183014,225.633713 200.565048,223.533905 
	C206.251816,221.315201 208.084244,218.005142 207.952698,209.174805 
M139.933380,157.092560 
	C143.501633,153.165588 139.296906,153.284225 137.093887,151.587265 
	C134.081940,157.764160 131.257034,163.557449 128.416199,169.383438 
	C133.401260,171.752640 137.911057,173.895981 142.664627,176.155167 
	C145.695099,169.976181 148.413681,164.433121 151.176300,158.800247 
	C149.206863,157.799149 147.675583,157.020767 145.899261,156.117844 
	C144.753555,158.408386 143.749573,160.415588 142.618896,162.676117 
	C141.811417,160.605133 136.711380,161.766861 139.933380,157.092560 
M150.111588,179.689026 
	C149.357162,179.979462 148.602737,180.269913 147.594528,180.658066 
	C150.744385,188.022217 158.670181,189.136642 164.062317,193.421402 
	C163.825577,194.881561 163.595642,196.299744 163.365707,197.717926 
	C163.920563,197.932922 164.475418,198.147934 165.030273,198.362946 
	C166.157623,196.271469 168.019379,194.222366 168.143402,192.072998 
	C168.220734,190.732834 165.889389,188.884689 164.256622,187.895859 
	C161.346146,186.133209 158.145996,184.848862 154.893570,183.280884 
	C155.706039,181.536469 156.481155,179.872253 157.602036,177.465668 
	C154.844986,178.216125 152.844208,178.760727 150.111588,179.689026 
M158.579254,168.932190 
	C159.524216,167.988663 160.469162,167.045120 161.370483,166.145172 
	C160.975327,164.930374 160.418579,163.218796 159.743195,161.142517 
	C158.929398,161.091232 157.126755,160.977631 155.552429,160.878403 
	C153.289963,165.487717 151.084229,169.981461 148.354813,175.542068 
	C152.676620,174.100540 155.610092,173.222076 158.433716,172.073532 
	C158.862259,171.899216 158.780594,170.470535 158.579254,168.932190 
M166.888947,168.750275 
	C166.346710,169.010910 165.804489,169.271545 165.262253,169.532181 
	C165.682495,169.830292 166.102753,170.128387 166.523010,170.426483 
	C166.869812,169.743988 167.216614,169.061478 166.888947,168.750275 
z"/>
<path fill="#F8F8F8" opacity="1.000000" stroke="none" 
	d="
M254.879654,190.178162 
	C254.128799,180.436066 254.682281,171.490921 260.083405,163.310471 
	C264.220917,157.043793 269.726868,152.788361 276.966858,151.537796 
	C286.230591,149.937698 295.326263,150.196411 303.185486,156.788742 
	C308.165283,160.965790 310.469727,166.310501 312.022125,173.117950 
	C308.061218,173.117950 304.610382,173.257629 301.185577,173.020889 
	C300.316742,172.960846 299.311096,171.845871 298.741211,170.972336 
	C293.939697,163.612320 288.004059,160.661896 281.367493,162.004745 
	C272.685089,163.761581 268.241669,171.037766 267.413086,178.285187 
	C266.481537,186.432816 266.336304,194.903503 272.487366,201.762909 
	C276.763000,206.530914 284.864471,208.583206 291.029785,206.141525 
	C297.262726,203.673065 299.874542,198.715317 300.016937,191.785141 
	C295.346344,191.785141 290.752075,191.785141 285.955566,191.785141 
	C285.955566,188.412262 285.955566,185.461639 285.955566,182.249023 
	C294.447357,182.249023 302.873230,182.249023 311.367981,182.249023 
	C316.979675,195.461197 306.692902,214.698944 292.642792,217.312073 
	C280.793304,219.515930 270.266113,217.660873 262.049377,208.133179 
	C257.735779,203.131378 255.510223,197.182068 254.879654,190.178162 
z"/>
<path fill="#F7F7F7" opacity="1.000000" stroke="none" 
	d="
M376.437927,215.890320 
	C376.001770,213.943924 375.561859,212.421844 375.026947,210.571075 
	C361.155975,220.346527 343.951141,211.828552 342.791168,196.948181 
	C342.078461,187.805267 342.649750,179.731598 349.632538,173.041962 
	C356.766174,166.207779 366.960724,165.731827 374.818542,172.335754 
	C375.384308,170.972610 375.906372,169.714783 376.428741,168.454773 
	C380.359528,168.452576 384.289948,168.452576 388.938782,168.452576 
	C388.938782,170.554565 388.938385,172.967529 388.938843,175.380508 
	C388.940979,187.208420 388.591827,199.049438 389.032745,210.860977 
	C389.610016,226.323517 380.347748,234.439941 365.840454,234.176788 
	C358.795715,234.048996 352.348236,233.119629 347.546417,227.503067 
	C345.881927,225.556152 344.724823,223.175446 342.868500,220.258240 
	C347.033813,219.385162 350.302795,218.699966 354.263153,217.869843 
	C356.885712,224.580124 363.198303,225.191040 369.874756,223.922928 
	C373.645599,223.206726 376.276093,220.599823 376.437927,215.890320 
M354.612000,191.438629 
	C354.886841,193.229507 354.937347,195.091965 355.481476,196.796890 
	C356.761017,200.806198 358.577942,204.493851 363.504089,204.901535 
	C369.752594,205.418625 374.088928,203.405182 375.214935,198.335251 
	C376.141541,194.162994 376.363678,189.499298 375.505554,185.340744 
	C374.060486,178.337921 366.612915,175.888000 360.254852,179.257812 
	C355.473724,181.791840 355.865936,186.467682 354.612000,191.438629 
z"/>
<path fill="#F7F8F8" opacity="1.000000" stroke="none" 
	d="
M426.525543,162.127625 
	C421.098938,159.604065 416.813873,161.655807 412.968414,164.682144 
	C409.450958,167.450302 409.920563,173.125595 413.954895,174.934723 
	C418.085999,176.787262 422.649994,177.647293 426.916962,179.231430 
	C431.638062,180.984146 436.869385,182.228439 440.763855,185.169907 
	C450.188751,192.288513 449.341766,210.038284 435.241669,215.833832 
	C424.559631,220.224472 413.415222,219.766251 403.780914,212.806839 
	C398.953491,209.319733 395.331635,204.135254 397.157501,196.989426 
	C398.724304,196.989426 400.221619,197.103058 401.696045,196.967453 
	C405.629486,196.605713 408.471313,196.843964 410.241028,201.671341 
	C413.026001,209.268051 427.195007,209.202957 432.014160,203.859375 
	C435.887390,199.564667 434.211365,193.794128 428.236877,191.718613 
	C422.716156,189.800766 416.886475,188.790573 411.301056,187.036148 
	C402.763550,184.354477 398.462494,178.636703 398.103668,170.096451 
	C397.780182,162.397369 402.235352,156.092163 410.322968,152.770508 
	C418.553314,149.390244 436.161804,149.982651 441.119598,157.963837 
	C443.370819,161.587952 444.994934,165.601608 447.478699,170.594818 
	C442.485565,170.594818 439.056091,170.729080 435.650909,170.500885 
	C434.794312,170.443481 433.972351,169.269318 433.209198,168.531097 
	C431.080383,166.471893 428.990753,164.372162 426.525543,162.127625 
z"/>
<path fill="#F7F7F7" opacity="1.000000" stroke="none" 
	d="
M463.909119,217.299683 
	C456.989746,214.666092 452.351562,209.386993 452.628387,204.913620 
	C453.204620,195.602386 456.829071,191.087662 465.615601,189.016037 
	C468.930511,188.234467 472.300140,187.622131 475.677612,187.186996 
	C478.806671,186.783859 482.881866,188.112488 483.045715,182.917770 
	C483.142883,179.836731 478.329651,176.043228 474.750916,176.967087 
	C471.892181,177.705078 469.391388,179.854843 466.754395,181.416260 
	C465.454926,182.185715 464.129333,183.818192 462.951080,183.700684 
	C460.316101,183.437943 457.766052,182.322891 455.181396,181.554993 
	C455.992859,179.323273 456.283356,176.665543 457.702148,174.930466 
	C465.638245,165.225159 483.821472,165.262070 491.622986,173.592880 
	C494.320404,176.473297 496.005188,181.259537 496.251221,185.291260 
	C496.887482,195.718231 496.464569,206.209839 496.464569,216.993011 
	C492.302704,216.993011 488.373505,216.993011 484.243134,216.993011 
	C484.111237,215.460617 483.974609,213.873383 483.807312,211.929779 
	C478.151886,217.400085 471.838196,219.670868 463.909119,217.299683 
M465.786926,205.171646 
	C469.276794,208.800735 474.759003,209.460373 479.110229,206.774719 
	C482.949951,204.404816 483.992188,200.442505 482.176941,195.365280 
	C479.544830,195.611588 476.934662,195.787964 474.342834,196.111511 
	C467.495300,196.966339 466.124054,198.293655 465.786926,205.171646 
z"/>
<path fill="#F8F8F8" opacity="1.000000" stroke="none" 
	d="
M552.096130,206.275787 
	C555.902039,206.865234 559.405151,207.305939 562.919373,207.427048 
	C563.943542,207.462357 564.964355,206.466354 566.047363,206.151093 
	C568.480530,205.442749 566.914612,199.839325 571.799561,201.817596 
	C574.110413,202.753387 577.024475,202.199692 579.637512,202.319595 
	C580.466003,210.153366 571.384644,217.670547 561.597839,218.140762 
	C553.157349,218.546280 545.163879,216.849274 540.182678,209.478104 
	C533.479797,199.559113 533.086548,188.977890 539.039795,178.336639 
	C544.318054,168.901962 552.901978,166.799026 562.652344,167.942291 
	C571.372314,168.964767 577.016846,174.097397 579.259888,182.598129 
	C580.358093,186.760193 580.925415,191.062332 581.837219,195.848083 
	C570.070374,195.848083 559.320190,195.848083 548.404846,195.848083 
	C546.735657,200.442612 549.801270,203.047699 552.096130,206.275787 
M554.100708,178.280182 
	C551.774353,180.802536 549.447998,183.324905 547.121582,185.847275 
	C547.455139,186.188507 547.788696,186.529739 548.122253,186.870972 
	C554.819824,186.870972 561.517456,186.870972 568.272766,186.870972 
	C566.664612,178.925079 562.933899,176.533691 554.100708,178.280182 
z"/>
<path fill="#FBFBFB" opacity="1.000000" stroke="none" 
	d="
M521.416870,163.709259 
	C521.229309,165.523651 521.229309,166.967163 521.229309,168.440948 
	C524.800354,168.440948 528.047363,168.440948 531.599426,168.440948 
	C531.599426,171.463226 531.599426,174.689789 531.599426,178.327393 
	C528.091553,178.327393 524.811523,178.327393 521.118286,178.327393 
	C521.118286,191.466507 521.118286,204.205551 521.118286,217.111420 
	C516.934631,217.111420 513.160828,217.111420 508.808411,217.111420 
	C508.808411,204.387421 508.808411,191.697479 508.808411,178.864410 
	C506.329559,178.581528 504.400024,178.361328 502.089050,178.097610 
	C502.089050,175.078873 502.089050,172.186447 502.089050,169.006500 
	C504.061096,168.853973 506.145386,168.692780 507.709045,168.571854 
	C509.019165,164.194565 509.550354,159.815063 511.559540,156.274185 
	C515.215820,149.830536 524.925781,147.155045 531.583496,150.198380 
	C532.381226,150.563034 533.020569,152.366104 532.903442,153.409286 
	C532.671448,155.476456 531.859741,157.478531 531.236572,159.688507 
	C528.092407,160.762253 523.328308,158.156052 521.416870,163.709259 
z"/>
<path fill="#FEFEFE" opacity="1.000000" stroke="none" 
	d="
M330.978760,217.262817 
	C327.836823,217.254730 325.192230,217.254730 322.226929,217.254730 
	C322.226929,200.919952 322.226929,184.740326 322.226929,168.826599 
	C326.044403,168.632889 329.894012,168.437546 334.185394,168.219788 
	C334.185394,183.820572 334.224884,199.377457 334.070129,214.932388 
	C334.062286,215.720428 332.379181,216.491776 330.978760,217.262817 
z"/>
<path fill="#F3F4F4" opacity="1.000000" stroke="none" 
	d="
M325.118042,149.097794 
	C329.869476,148.225479 333.460236,150.121017 334.806946,153.901306 
	C336.181702,157.760284 333.837402,160.277176 331.331909,162.284668 
	C329.029236,164.129669 323.544067,162.325821 321.820465,159.342651 
	C319.353363,155.072662 321.736420,151.957001 325.118042,149.097794 
z"/>
<path fill="#060606" opacity="1.000000" stroke="none" 
	d="
M188.480728,179.522369 
	C189.588425,175.892792 188.058548,173.893951 184.550201,173.020782 
	C183.279602,172.704544 182.075211,172.131714 180.817551,171.752441 
	C175.035507,170.008728 170.452591,167.004044 169.308838,160.242554 
	C174.018555,160.449249 177.344666,157.851959 179.831009,153.571548 
	C180.532104,152.364563 182.585526,151.943069 184.229767,151.046158 
	C184.431870,149.007477 184.899857,146.636612 181.164215,146.544327 
	C180.378036,146.524902 179.498703,145.229721 178.879318,144.366638 
	C175.962387,140.302002 171.369049,139.011703 167.531326,140.774200 
	C164.375107,142.223740 161.737167,146.059967 160.286270,149.445557 
	C159.535614,151.197205 161.862778,154.267868 163.461716,158.492599 
	C156.252991,155.339188 150.217026,152.713196 144.197540,150.049957 
	C143.302185,149.653839 142.515686,149.014801 141.625778,148.602707 
	C134.544510,145.323471 134.412247,144.898590 131.682327,152.042404 
	C129.926270,156.637756 127.293633,160.892197 125.188004,165.362610 
	C124.252884,167.347931 122.415901,170.494156 123.128799,171.368835 
	C125.162292,173.863815 128.056946,176.556458 131.040131,177.204681 
	C139.128204,178.962097 140.568344,179.823608 141.680618,187.244415 
	C138.266022,187.244415 134.825516,187.244415 132.193237,187.244415 
	C132.694260,185.001526 133.705490,182.839233 133.361450,180.919876 
	C133.211411,180.082901 130.317978,179.457886 128.607849,179.248993 
	C126.310120,178.968353 123.858871,178.792419 121.650513,179.316849 
	C120.045006,179.698120 118.726135,181.286453 117.279465,182.336609 
	C118.655594,183.142654 119.948280,184.343079 121.428673,184.656311 
	C123.338577,185.060425 125.398674,184.754745 127.560493,184.754745 
	C127.068916,186.821777 126.612198,188.742249 126.092453,190.927704 
	C127.934181,191.231598 129.660645,191.354553 131.280899,191.835388 
	C132.563004,192.215866 133.714737,193.035629 134.924362,193.660339 
	C134.031128,194.738617 133.328598,196.461212 132.213882,196.791122 
	C124.695030,199.016464 122.147804,205.567520 120.442963,211.766708 
	C119.489380,215.234161 121.924866,219.633636 122.951668,224.131927 
	C121.755615,223.958359 120.214012,223.956909 120.168373,223.694870 
	C119.420998,219.404327 119.242554,214.983337 118.165901,210.789413 
	C116.801361,205.474075 113.761086,200.446579 113.165207,195.102951 
	C111.374466,179.044189 110.419922,162.892181 109.128860,146.647125 
	C124.229385,140.783035 138.214340,135.363937 152.184296,129.906494 
	C153.402008,129.430786 154.546082,128.745590 155.681503,128.084106 
	C159.597031,125.803001 163.269974,126.332664 167.394226,128.069580 
	C179.881363,133.328476 192.509354,138.261002 205.155609,143.130798 
	C212.358597,145.904510 212.609161,145.869370 212.480057,153.757217 
	C212.255951,167.451126 213.574524,181.222809 210.044708,194.765823 
	C209.525864,196.756577 208.545303,200.133163 212.456772,201.272903 
	C213.107254,201.462433 213.246414,203.406799 213.263855,204.831024 
	C207.062973,200.050873 202.208115,192.704590 192.890091,196.173981 
	C191.276260,190.555130 191.693863,190.094070 197.471970,190.760086 
	C197.471970,187.031876 197.471970,183.326721 197.471970,179.048874 
	C194.723969,179.473602 192.358536,179.839188 189.417175,180.026443 
	C188.841232,179.848099 188.480728,179.522369 188.480728,179.522369 
M125.134537,192.486115 
	C122.168716,193.631302 117.864899,191.874863 116.254982,196.927826 
	C121.123688,199.044754 125.235878,198.485901 128.904968,194.272156 
	C127.847298,193.751877 126.835976,193.254395 125.134537,192.486115 
z"/>
<path fill="#060707" opacity="1.000000" stroke="none" 
	d="
M187.804916,198.349426 
	C181.956589,203.290970 178.576065,209.101089 181.002625,216.343109 
	C182.375427,220.440170 185.516907,223.944626 188.171188,228.213684 
	C181.470840,235.103546 172.202927,239.877960 162.763382,244.373077 
	C162.096451,244.690659 161.005524,244.776917 160.392197,244.447922 
	C152.699570,240.321381 145.058701,236.098328 136.573334,231.444061 
	C144.572205,228.056168 150.715195,224.798889 153.823074,217.534485 
	C150.611359,216.872910 148.407562,216.716492 146.390869,220.095688 
	C143.850479,224.352402 137.340134,225.236679 132.574387,222.943024 
	C128.076477,220.778229 125.222786,214.958847 126.291740,210.131058 
	C127.516563,204.599380 131.309875,201.553680 137.165558,201.425583 
	C138.644852,201.393219 140.125443,201.420746 143.406952,201.420746 
	C141.029938,204.489456 139.387497,206.449326 137.935226,208.541229 
	C136.970123,209.931381 136.276810,211.510239 135.461838,213.004623 
	C136.983017,213.631866 138.470230,214.669968 140.032578,214.799057 
	C143.093536,215.051987 146.260956,214.382507 149.267151,214.849289 
	C154.070297,215.595078 158.777878,216.956345 163.934296,218.152130 
	C164.260681,217.054123 164.853302,215.060471 165.150040,214.062210 
	C167.167374,213.502991 169.029404,213.548843 169.938812,212.640732 
	C174.739227,207.847198 179.244202,202.759216 183.983154,197.901642 
	C185.129974,196.726135 186.887161,193.621826 187.804916,198.349426 
z"/>
<path fill="#060606" opacity="1.000000" stroke="none" 
	d="
M208.007416,209.582977 
	C208.084244,218.005142 206.251816,221.315201 200.565048,223.533905 
	C195.183014,225.633713 188.707993,222.809250 186.205353,217.270111 
	C183.865280,212.090759 185.653275,206.229034 190.135117,203.923782 
	C191.655273,207.027115 193.037613,210.205780 194.782516,213.171066 
	C195.243286,213.954086 196.822662,214.078873 197.888382,214.505920 
	C198.106827,213.423080 198.736420,212.224350 198.469757,211.278244 
	C197.517212,207.898758 196.260483,204.605026 195.068970,201.133514 
	C201.099121,201.579529 206.187576,202.793427 208.007416,209.582977 
z"/>
<path fill="#090909" opacity="1.000000" stroke="none" 
	d="
M139.696106,157.381104 
	C136.711380,161.766861 141.811417,160.605133 142.618896,162.676117 
	C143.749573,160.415588 144.753555,158.408386 145.899261,156.117844 
	C147.675583,157.020767 149.206863,157.799149 151.176300,158.800247 
	C148.413681,164.433121 145.695099,169.976181 142.664627,176.155167 
	C137.911057,173.895981 133.401260,171.752640 128.416199,169.383438 
	C131.257034,163.557449 134.081940,157.764160 137.093887,151.587265 
	C139.296906,153.284225 143.501633,153.165588 139.696106,157.381104 
z"/>
<path fill="#111213" opacity="1.000000" stroke="none" 
	d="
M150.477509,179.497162 
	C152.844208,178.760727 154.844986,178.216125 157.602036,177.465668 
	C156.481155,179.872253 155.706039,181.536469 154.893570,183.280884 
	C158.145996,184.848862 161.346146,186.133209 164.256622,187.895859 
	C165.889389,188.884689 168.220734,190.732834 168.143402,192.072998 
	C168.019379,194.222366 166.157623,196.271469 165.030273,198.362946 
	C164.475418,198.147934 163.920563,197.932922 163.365707,197.717926 
	C163.595642,196.299744 163.825577,194.881561 164.062317,193.421402 
	C158.670181,189.136642 150.744385,188.022217 147.594528,180.658066 
	C148.602737,180.269913 149.357162,179.979462 150.477509,179.497162 
z"/>
<path fill="#111213" opacity="1.000000" stroke="none" 
	d="
M158.757080,169.277130 
	C158.780594,170.470535 158.862259,171.899216 158.433716,172.073532 
	C155.610092,173.222076 152.676620,174.100540 148.354813,175.542068 
	C151.084229,169.981461 153.289963,165.487717 155.552429,160.878403 
	C157.126755,160.977631 158.929398,161.091232 159.743195,161.142517 
	C160.418579,163.218796 160.975327,164.930374 161.370483,166.145172 
	C160.469162,167.045120 159.524216,167.988663 158.757080,169.277130 
z"/>
<path fill="#0E0F0F" opacity="1.000000" stroke="none" 
	d="
M174.952408,189.053894 
	C175.260971,190.079468 175.569534,191.105026 175.975693,192.454971 
	C177.087112,192.271713 178.887253,191.974915 180.815384,191.656998 
	C180.206482,195.919205 173.008850,203.289948 169.035828,203.787933 
	C170.931732,198.948914 172.773529,194.248001 174.813782,189.279541 
	C175.012253,189.012009 174.952408,189.053894 174.952408,189.053894 
z"/>
<path fill="#0B0D0D" opacity="1.000000" stroke="none" 
	d="
M175.036118,188.984344 
	C171.599365,187.136200 168.411469,185.092712 168.179993,179.557816 
	C173.533325,181.384644 178.530365,183.089905 184.514267,185.131912 
	C180.808762,186.385712 177.988220,187.340073 175.060043,188.674164 
	C174.952408,189.053894 175.012253,189.012009 175.036118,188.984344 
z"/>
<path fill="#0B0D0D" opacity="1.000000" stroke="none" 
	d="
M153.407578,208.084717 
	C152.475204,205.866974 151.542831,203.649231 150.825043,201.941925 
	C152.253281,199.424149 153.589508,197.068573 155.116394,194.376907 
	C158.590454,194.848312 157.407806,198.347809 157.101944,200.929535 
	C156.746399,203.930618 155.619781,206.840347 154.450897,209.548248 
	C153.851852,208.899414 153.629715,208.492065 153.407578,208.084717 
z"/>
<path fill="#424242" opacity="1.000000" stroke="none" 
	d="
M152.978119,208.156372 
	C153.629715,208.492065 153.851852,208.899414 154.069534,209.551758 
	C150.221481,210.119202 146.377899,210.441620 141.908264,210.816574 
	C143.907593,209.039886 145.572815,207.560089 146.762924,206.502518 
	C148.849869,207.124924 150.699265,207.676483 152.978119,208.156372 
z"/>
<path fill="#111213" opacity="1.000000" stroke="none" 
	d="
M167.226166,168.564636 
	C167.216614,169.061478 166.869812,169.743988 166.523010,170.426483 
	C166.102753,170.128387 165.682495,169.830292 165.262253,169.532181 
	C165.804489,169.271545 166.346710,169.010910 167.226166,168.564636 
z"/>
<path fill="#060606" opacity="1.000000" stroke="none" 
	d="
M189.013428,180.019470 
	C188.877365,180.097763 188.569107,180.004684 188.370789,179.716980 
	C188.480728,179.522369 188.841232,179.848099 189.013428,180.019470 
z"/>
<path fill="#060606" opacity="1.000000" stroke="none" 
	d="
M354.631470,190.989334 
	C355.865936,186.467682 355.473724,181.791840 360.254852,179.257812 
	C366.612915,175.888000 374.060486,178.337921 375.505554,185.340744 
	C376.363678,189.499298 376.141541,194.162994 375.214935,198.335251 
	C374.088928,203.405182 369.752594,205.418625 363.504089,204.901535 
	C358.577942,204.493851 356.761017,200.806198 355.481476,196.796890 
	C354.937347,195.091965 354.886841,193.229507 354.631470,190.989334 
z"/>
<path fill="#060606" opacity="1.000000" stroke="none" 
	d="
M465.728760,204.741791 
	C466.124054,198.293655 467.495300,196.966339 474.342834,196.111511 
	C476.934662,195.787964 479.544830,195.611588 482.176941,195.365280 
	C483.992188,200.442505 482.949951,204.404816 479.110229,206.774719 
	C474.759003,209.460373 469.276794,208.800735 465.728760,204.741791 
z"/>
<path fill="#090909" opacity="1.000000" stroke="none" 
	d="
M554.457642,178.130920 
	C562.933899,176.533691 566.664612,178.925079 568.272766,186.870972 
	C561.517456,186.870972 554.819824,186.870972 548.122253,186.870972 
	C547.788696,186.529739 547.455139,186.188507 547.121582,185.847275 
	C549.447998,183.324905 551.774353,180.802536 554.457642,178.130920 
z"/>
<path fill="#E7E7EA" opacity="1.000000" stroke="none" 
	d="
M125.479599,192.621521 
	C126.835976,193.254395 127.847298,193.751877 128.904968,194.272156 
	C125.235878,198.485901 121.123688,199.044754 116.254982,196.927826 
	C117.864899,191.874863 122.168716,193.631302 125.479599,192.621521 
z"/>
</svg>